<svg xmlns="http://www.w3.org/2000/svg" viewBox="286 108 24 24"><defs><style>.a{fill:#1565c1;}</style></defs><path class="a" d="M-286-96a12.014,12.014,0,0,1,12-12,12.014,12.014,0,0,1,12,12,12.014,12.014,0,0,1-12,12A12.014,12.014,0,0,1-286-96Zm.923,0A11.09,11.09,0,0,0-274-84.923,11.09,11.09,0,0,0-262.923-96,11.089,11.089,0,0,0-274-107.077,11.089,11.089,0,0,0-285.077-96Zm14.9,4.48L-274-95.348l-3.828,3.828a.462.462,0,0,1-.327.136.46.46,0,0,1-.326-.136.46.46,0,0,1,0-.652L-274.653-96l-3.827-3.827a.461.461,0,0,1,0-.653.462.462,0,0,1,.652,0L-274-96.653l3.827-3.828a.463.463,0,0,1,.653,0,.463.463,0,0,1,0,.653L-273.347-96l3.828,3.828a.462.462,0,0,1,0,.652.462.462,0,0,1-.327.136A.462.462,0,0,1-270.173-91.52Z" transform="translate(572 216)"/></svg>