<svg xmlns="http://www.w3.org/2000/svg" viewBox="694 75 12.409 18"><g transform="translate(666.323 75)"><path d="M39.48,6.136H38.209V4.327a4.327,4.327,0,0,0-8.655,0V6.136H28.283a.606.606,0,0,0-.606.606V17.394a.606.606,0,0,0,.606.606h11.2a.606.606,0,0,0,.606-.606V6.742A.606.606,0,0,0,39.48,6.136ZM30.766,4.327a3.115,3.115,0,0,1,6.231,0V6.136H30.766Zm8.108,12.46H28.889V7.348h9.984Z"/><path d="M80.3,106.609l-.486-1.533a.979.979,0,1,0-1.256,0l-.486,1.533Z" transform="translate(-45.308 -92.913)"/></g></svg>