<svg xmlns="http://www.w3.org/2000/svg" viewBox="732 306 18 18"><defs><style>.a{fill:#1565c1;stroke:#1565c1;stroke-width:2px;}.b{fill:#fff;}.c{stroke:none;}.d{fill:none;}</style></defs><g transform="translate(410 149)"><g class="a" transform="translate(322 157)"><circle class="c" cx="9" cy="9" r="9"/><circle class="d" cx="9" cy="9" r="8"/></g><path class="b" d="M4.33-104.621l-3.464-2A1,1,0,0,1,.5-107.987a1,1,0,0,1,1.365-.366l2.61,1.507,4.208-7.288a1,1,0,0,1,1.366-.365,1,1,0,0,1,.365,1.366l-4.5,7.794a1,1,0,0,1-.144.192,1.008,1.008,0,0,1-.075.161,1,1,0,0,1-.867.5A1,1,0,0,1,4.33-104.621Z" transform="matrix(0.966, 0.259, -0.259, 0.966, 296.598, 269.841)"/></g></svg>