<svg xmlns="http://www.w3.org/2000/svg" viewBox="636 112 14.105 18"><g transform="translate(588.273 112)"><g transform="translate(47.727 0)"><path d="M61.15,171.954H58.213a.694.694,0,1,0,0,1.387h2.231v8.209H49.114v-8.209h2.463a.694.694,0,1,0,0-1.387H48.409a.717.717,0,0,0-.682.728V182.3a.639.639,0,0,0,.682.636H61.15a.639.639,0,0,0,.682-.636v-9.619A.717.717,0,0,0,61.15,171.954Z" transform="translate(-47.727 -164.937)"/><path d="M117.267,12.219a.7.7,0,0,0,.694-.694v-9.4l2.96,2.636a.7.7,0,1,0,.925-1.041L117.856.172a.7.7,0,0,0-.89-.023.7.7,0,0,0-.3.277l-3.457,3.318a.7.7,0,1,0,.96,1.006l2.4-2.312v9.087A.7.7,0,0,0,117.267,12.219Z" transform="translate(-110.33 0)"/></g></g></svg>