<svg xmlns="http://www.w3.org/2000/svg" viewBox="70.5 906.5 219 219">
  <defs>
    <style>
      .cls-1 {
        fill: #fff;
      }

      .cls-2 {
        fill: #f8f8f8;
      }

      .cls-3 {
        fill: #f4f4f4;
      }

      .cls-4 {
        fill: #1565c1;
      }

      .cls-5 {
        fill: #333;
        font-size: 20px;
        font-family: Raleway-Medium, Raleway;
        font-weight: 500;
      }
    </style>
  </defs>
  <g id="UploadPicture" transform="translate(0 730)">
    <path id="Path_9" data-name="Path 9" class="cls-1" d="M110,.5A109.5,109.5,0,1,1,.5,110,109.5,109.5,0,0,1,110,.5Z" transform="translate(70 176)"/>
    <g id="Group_11" data-name="Group 11">
      <g id="male-user-shadow" transform="translate(105.227 224.928)">
        <g id="Group_8" data-name="Group 8" transform="translate(0 7.045)">
          <path id="Path_10" data-name="Path 10" class="cls-2" d="M1.2,148.82H28.8a1.25,1.25,0,0,0,.943-.413,1.017,1.017,0,0,0,.251-.812A15.18,15.18,0,0,0,22,136.113a9.888,9.888,0,0,1-14,0A15.178,15.178,0,0,0,.009,147.6a1.018,1.018,0,0,0,.251.812A1.25,1.25,0,0,0,1.2,148.82Z" transform="translate(0 -120.522)"/>
          <path id="Path_11" data-name="Path 11" class="cls-2" d="M55.431,21.546c.161.169.329.33.5.485a8.539,8.539,0,0,0,11.43,0c.174-.156.342-.317.5-.485s.317-.342.464-.523a8.591,8.591,0,1,0-13.364,0C55.114,21.2,55.27,21.377,55.431,21.546Z" transform="translate(-46.65 -7.045)"/>
        </g>
      </g>
      <g id="male-user-shadow-2" data-name="male-user-shadow" transform="translate(225.227 224.928)">
        <g id="Group_9" data-name="Group 9" transform="translate(0 7.045)">
          <path id="Path_14" data-name="Path 14" class="cls-2" d="M1.2,148.82H28.8a1.25,1.25,0,0,0,.943-.413,1.017,1.017,0,0,0,.251-.812A15.18,15.18,0,0,0,22,136.113a9.888,9.888,0,0,1-14,0A15.178,15.178,0,0,0,.009,147.6a1.018,1.018,0,0,0,.251.812A1.25,1.25,0,0,0,1.2,148.82Z" transform="translate(0 -120.522)"/>
          <path id="Path_15" data-name="Path 15" class="cls-2" d="M55.431,21.546c.161.169.329.33.5.485a8.539,8.539,0,0,0,11.43,0c.174-.156.342-.317.5-.485s.317-.342.464-.523a8.591,8.591,0,1,0-13.364,0C55.114,21.2,55.27,21.377,55.431,21.546Z" transform="translate(-46.65 -7.045)"/>
        </g>
      </g>
      <g id="male-user-shadow-3" data-name="male-user-shadow" transform="translate(165.227 184.928)">
        <g id="Group_10" data-name="Group 10" transform="translate(0 7.045)">
          <path id="Path_16" data-name="Path 16" class="cls-3" d="M1.2,148.82H28.8a1.25,1.25,0,0,0,.943-.413,1.017,1.017,0,0,0,.251-.812A15.18,15.18,0,0,0,22,136.113a9.888,9.888,0,0,1-14,0A15.178,15.178,0,0,0,.009,147.6a1.018,1.018,0,0,0,.251.812A1.25,1.25,0,0,0,1.2,148.82Z" transform="translate(0 -120.522)"/>
          <path id="Path_17" data-name="Path 17" class="cls-3" d="M55.431,21.546c.161.169.329.33.5.485a8.539,8.539,0,0,0,11.43,0c.174-.156.342-.317.5-.485s.317-.342.464-.523a8.591,8.591,0,1,0-13.364,0C55.114,21.2,55.27,21.377,55.431,21.546Z" transform="translate(-46.65 -7.045)"/>
        </g>
      </g>
    </g>
    <g id="photo-camera_2_" data-name="photo-camera (2)" transform="translate(155 230.5)">
      <path id="Path_12" data-name="Path 12" class="cls-4" d="M28,20.5a10,10,0,1,0,10,10A10.011,10.011,0,0,0,28,20.5Z" transform="translate(-3 -2.5)"/>
      <path id="Path_13" data-name="Path 13" class="cls-4" d="M46,13.833H38.9L35.564,5.5H14.436L11.1,13.833H10V9.667H5v4.167H4a4,4,0,0,0-4,4V42.306a4.032,4.032,0,0,0,4.028,4.028H45.972A4.032,4.032,0,0,0,50,42.306V17.833A4,4,0,0,0,46,13.833Zm-37.667,0H6.667v-2.5H8.333ZM25,43A15,15,0,1,1,40,28,15.017,15.017,0,0,1,25,43ZM43.333,23.833A3.333,3.333,0,1,1,46.667,20.5,3.337,3.337,0,0,1,43.333,23.833Z"/>
    </g>
    <text id="Upload_profile_picture" data-name="Upload profile
picture" class="cls-5" transform="translate(180 318)"><tspan x="-66.57" y="0">Upload profile</tspan><tspan x="-33.02" y="24">picture</tspan></text>
  </g>
</svg>
